<?xml version="1.0" encoding="utf-8"?>
<!-- Generator: Adobe Illustrator 16.0.0, SVG Export Plug-In . SVG Version: 6.00 Build 0)  -->
<!DOCTYPE svg PUBLIC "-//W3C//DTD SVG 1.1//EN" "http://www.w3.org/Graphics/SVG/1.1/DTD/svg11.dtd" [
	<!ENTITY ns_flows "http://ns.adobe.com/Flows/1.0/">
	<!ENTITY ns_extend "http://ns.adobe.com/Extensibility/1.0/">
	<!ENTITY ns_ai "http://ns.adobe.com/AdobeIllustrator/10.0/">
	<!ENTITY ns_graphs "http://ns.adobe.com/Graphs/1.0/">
	<!ENTITY ns_vars "http://ns.adobe.com/Variables/1.0/">
	<!ENTITY ns_imrep "http://ns.adobe.com/ImageReplacement/1.0/">
	<!ENTITY ns_sfw "http://ns.adobe.com/SaveForWeb/1.0/">
	<!ENTITY ns_custom "http://ns.adobe.com/GenericCustomNamespace/1.0/">
	<!ENTITY ns_adobe_xpath "http://ns.adobe.com/XPath/1.0/">
]>
<svg version="1.1" id="栝鍣_1" xmlns:x="&ns_extend;" xmlns:i="&ns_ai;" xmlns:graph="&ns_graphs;"
	 xmlns="http://www.w3.org/2000/svg" xmlns:xlink="http://www.w3.org/1999/xlink" xmlns:a="http://ns.adobe.com/AdobeSVGViewerExtensions/3.0/"
	 x="0px" y="0px" width="70px" height="140px" viewBox="0 0 70 140" enable-background="new 0 0 70 140" xml:space="preserve">
<metadata>
	<sfw  xmlns="&ns_sfw;">
		<slices></slices>
		<sliceSourceBounds  height="5665.418" width="6913.451" x="-4790" y="-875.568" bottomLeftOrigin="true"></sliceSourceBounds>
	</sfw>
</metadata>
<pattern  x="-1188.5" width="46.333" height="47.334" patternUnits="userSpaceOnUse" id="新增圖樣色票_1" viewBox="0 -47.334 46.333 47.334" overflow="visible">
	<g>
		<polygon fill="none" points="0,0 46.333,0 46.333,-47.334 0,-47.334 		"/>
		<g>
			<polygon fill="#757575" points="46.333,0 0,0 0,-47.334 46.333,-47.334 			"/>
		</g>
	</g>
</pattern>
<g>
	<g>
		<g>
			<defs>
				<path id="SVGID_7_" d="M143.542,100.618c-0.295-0.89-1.076-1.542-2.02-1.677l-10.648-1.524l-4.764-9.506
					c-0.423-0.842-1.292-1.374-2.243-1.374c-0.95,0-1.82,0.532-2.241,1.374l-4.766,9.506l-10.65,1.524
					c-0.94,0.136-1.724,0.787-2.019,1.677c-0.293,0.891-0.05,1.87,0.633,2.525l7.707,7.4l-1.819,10.449
					c-0.161,0.923,0.224,1.858,0.994,2.409c0.437,0.312,0.951,0.471,1.47,0.471c0.398,0,0.801-0.093,1.166-0.283l9.525-4.933
					l9.526,4.933c0.364,0.19,0.766,0.283,1.164,0.283c0.518,0,1.034-0.159,1.471-0.471c0.77-0.55,1.154-1.485,0.993-2.409
					l-1.817-10.449l7.705-7.4C143.591,102.488,143.836,101.509,143.542,100.618z"/>
			</defs>
			<clipPath id="SVGID_2_">
				<use xlink:href="#SVGID_7_"  overflow="visible"/>
			</clipPath>
			<g clip-path="url(#SVGID_2_)">
				<rect x="67" y="50.479" fill="none" width="46.5" height="50.479"/>
				<g>
					<rect x="67" y="50.479" fill-rule="evenodd" clip-rule="evenodd" fill="#FFD24D" width="46.5" height="50.479"/>
				</g>
			</g>
			<g clip-path="url(#SVGID_2_)">
				<rect x="67" y="100.959" fill="none" width="46.5" height="50.479"/>
				<g>
					<rect x="67" y="100.959" fill-rule="evenodd" clip-rule="evenodd" fill="#FFD24D" width="46.5" height="50.479"/>
				</g>
			</g>
		</g>
	</g>
	<g>
		<defs>
			<rect id="SVGID_9_" x="96.727" y="74.851" width="27.141" height="60.707"/>
		</defs>
		<clipPath id="SVGID_4_">
			<use xlink:href="#SVGID_9_"  overflow="visible"/>
		</clipPath>
		<g clip-path="url(#SVGID_4_)">
			<g>
				<defs>
					<path id="SVGID_11_" d="M143.542,100.618c-0.295-0.89-1.076-1.542-2.02-1.677l-10.648-1.524l-4.764-9.506
						c-0.423-0.842-1.292-1.374-2.243-1.374c-0.95,0-1.82,0.532-2.241,1.374l-4.766,9.506l-10.65,1.524
						c-0.94,0.136-1.724,0.787-2.019,1.677c-0.293,0.891-0.05,1.87,0.633,2.525l7.707,7.4l-1.819,10.449
						c-0.161,0.923,0.224,1.858,0.994,2.409c0.437,0.312,0.951,0.471,1.47,0.471c0.398,0,0.801-0.093,1.166-0.283l9.525-4.933
						l9.526,4.933c0.364,0.19,0.766,0.283,1.164,0.283c0.518,0,1.034-0.159,1.471-0.471c0.77-0.55,1.154-1.485,0.993-2.409
						l-1.817-10.449l7.705-7.4C143.591,102.488,143.836,101.509,143.542,100.618z"/>
				</defs>
				<clipPath id="SVGID_6_">
					<use xlink:href="#SVGID_11_"  overflow="visible"/>
				</clipPath>
				<g clip-path="url(#SVGID_6_)">
					<rect x="67" y="50.479" fill="none" width="46.5" height="50.479"/>
					<g>
						<rect x="67" y="50.479" fill-rule="evenodd" clip-rule="evenodd" fill="#FFE599" width="46.5" height="50.479"/>
					</g>
				</g>
				<g clip-path="url(#SVGID_6_)">
					<rect x="67" y="100.959" fill="none" width="46.5" height="50.479"/>
					<g>
						<rect x="67" y="100.959" fill-rule="evenodd" clip-rule="evenodd" fill="#FFE599" width="46.5" height="50.479"/>
					</g>
				</g>
			</g>
		</g>
	</g>
</g>
<g>
	<g>
		<defs>
			<circle id="SVGID_97_" cx="-47.977" cy="105" r="19.946"/>
		</defs>
		<clipPath id="SVGID_8_">
			<use xlink:href="#SVGID_97_"  overflow="visible"/>
		</clipPath>
		<g clip-path="url(#SVGID_8_)">
			<g>
				<g>
					<defs>
						<path id="SVGID_99_" d="M-28.011,105.056c0,11.043-8.953,19.995-19.996,19.995c-11.041,0-19.994-8.952-19.994-19.995
							c0-11.042,8.953-19.995,19.994-19.995C-36.964,85.061-28.011,94.014-28.011,105.056z M-19.351,102.128
							c-1.258-1.257-2.93-1.95-4.709-1.95c-1.721,0-3.34,0.651-4.582,1.831c-0.314-0.668-0.92-1.267-2.074-1.267
							c0,0.7,0,1.907,0,3.175l-2.808,2.581c-0.081-1.591-0.72-3.158-1.931-4.37c-2.58-2.58-6.772-2.593-9.377-0.033v-2.594
							c0,0,0.207-3.073-2.41-3.073c0,1.982,0,8.07,0,8.07h0.003l-0.003,0.002c0,0,2.27,1.044,4.079-0.67
							c1.81-1.716,4.349-1.652,6.003,0.003c1.643,1.64,1.656,4.302,0.047,5.959l-0.01,0.01l-0.035,0.037
							c-1.658,1.654-4.352,1.654-6.008,0c0.098,0.095,0.197,0.185,0.3,0.269c-0.103-0.084-0.202-0.175-0.3-0.271l-3.855-3.854v0.001
							l-3.854-3.855c-1.299-1.297-3.002-1.945-4.707-1.945c-1.51,0-3.018,0.513-4.244,1.531v-2.213c0,0,0.208-3.073-2.41-3.073
							c0,1.982,0,10.406,0,10.406h0.004c0,1.706,0.646,3.41,1.943,4.708c2.596,2.594,6.815,2.596,9.416-0.002l2.369-2.37
							c0,0-2.269-1.044-4.078,0.671c-1.809,1.715-4.349,1.652-6.002-0.002c-0.829-0.829-1.242-1.917-1.242-3.005l0,0v-0.013
							c0.004-1.063,0.402-2.125,1.196-2.943l0.126-0.123c1.661-1.577,4.297-1.552,5.924,0.079l3.855,3.854l0,0l3.855,3.853
							c1.299,1.298,3.002,1.947,4.707,1.946c1.697,0,3.393-0.644,4.689-1.927l4.756-4.371c0,0.931,0,5.338,0,6.331
							c2.615,0,2.41-3.074,2.41-3.074v-4.945v-0.525l1.206-1.109l0.037-0.033c0.803-0.804,1.869-1.244,3.003-1.244
							c1.135-0.002,2.201,0.44,3.004,1.244c0.803,0.802,1.244,1.867,1.244,3.001v3.931c0.03,0.783,0.312,2.756,2.411,2.756v-6.687
							C-17.4,105.056-18.096,103.385-19.351,102.128z"/>
					</defs>
					<clipPath id="SVGID_10_">
						<use xlink:href="#SVGID_99_"  overflow="visible"/>
					</clipPath>
					<g clip-path="url(#SVGID_10_)">
						<rect x="-26" y="50.479" fill="none" width="46.5" height="50.479"/>
						<g>
							<rect x="-26" y="50.479" fill-rule="evenodd" clip-rule="evenodd" fill="#FFD24D" width="46.5" height="50.479"/>
						</g>
					</g>
					<g clip-path="url(#SVGID_10_)">
						<rect x="-26" y="100.959" fill="none" width="46.5" height="50.479"/>
						<g>
							<rect x="-26" y="100.959" fill-rule="evenodd" clip-rule="evenodd" fill="#FFD24D" width="46.5" height="50.479"/>
						</g>
					</g>
				</g>
			</g>
			<g>
				<g>
					<defs>
						<path id="SVGID_101_" d="M-33.655,105.46c0,0,0.928,3.475-2.113,6.376s2.658,3.685,2.658,3.685l5.367-0.587
							c0,0,1.553-1.614,1.613-3.633c0.061-2.021-0.271-2.744-0.512-4.99c0,0,1.924-2.982,2.064-3.344s1.674-2.777-0.271-4.18
							c-1.943-1.402-5.607-2.685-6.376-2.359c-0.77,0.325-1.811,2.541-1.899,3.219c-0.092,0.68-0.272,3.755-0.272,3.755
							L-33.655,105.46z"/>
					</defs>
					<clipPath id="SVGID_12_">
						<use xlink:href="#SVGID_101_"  overflow="visible"/>
					</clipPath>
					<g clip-path="url(#SVGID_12_)">
						<rect x="-26" y="50.479" fill="none" width="46.5" height="50.479"/>
						<g>
							<rect x="-26" y="50.479" fill-rule="evenodd" clip-rule="evenodd" fill="#FFD24D" width="46.5" height="50.479"/>
						</g>
					</g>
					<g clip-path="url(#SVGID_12_)">
						<rect x="-26" y="100.959" fill="none" width="46.5" height="50.479"/>
						<g>
							<rect x="-26" y="100.959" fill-rule="evenodd" clip-rule="evenodd" fill="#FFD24D" width="46.5" height="50.479"/>
						</g>
					</g>
				</g>
			</g>
		</g>
	</g>
	<g>
		<defs>
			<rect id="SVGID_103_" x="-67.923" y="82.5" width="19.946" height="45"/>
		</defs>
		<clipPath id="SVGID_14_">
			<use xlink:href="#SVGID_103_"  overflow="visible"/>
		</clipPath>
		<g clip-path="url(#SVGID_14_)">
			<defs>
				<circle id="SVGID_105_" cx="-47.977" cy="105" r="19.946"/>
			</defs>
			<clipPath id="SVGID_16_">
				<use xlink:href="#SVGID_105_"  overflow="visible"/>
			</clipPath>
			<g clip-path="url(#SVGID_16_)">
				<g>
					<g>
						<defs>
							<path id="SVGID_107_" d="M-28.011,105.056c0,11.043-8.953,19.995-19.996,19.995c-11.041,0-19.994-8.952-19.994-19.995
								c0-11.042,8.953-19.995,19.994-19.995C-36.964,85.061-28.011,94.014-28.011,105.056z M-19.351,102.128
								c-1.258-1.257-2.93-1.95-4.709-1.95c-1.721,0-3.34,0.651-4.582,1.831c-0.314-0.668-0.92-1.267-2.074-1.267
								c0,0.7,0,1.907,0,3.175l-2.808,2.581c-0.081-1.591-0.72-3.158-1.931-4.37c-2.58-2.58-6.772-2.593-9.377-0.033v-2.594
								c0,0,0.207-3.073-2.41-3.073c0,1.982,0,8.07,0,8.07h0.003l-0.003,0.002c0,0,2.27,1.044,4.079-0.67
								c1.81-1.716,4.349-1.652,6.003,0.003c1.643,1.64,1.656,4.302,0.047,5.959l-0.01,0.01l-0.035,0.037
								c-1.658,1.654-4.352,1.654-6.008,0c0.098,0.095,0.197,0.185,0.3,0.269c-0.103-0.084-0.202-0.175-0.3-0.271l-3.855-3.854
								v0.001l-3.854-3.855c-1.299-1.297-3.002-1.945-4.707-1.945c-1.51,0-3.018,0.513-4.244,1.531v-2.213
								c0,0,0.208-3.073-2.41-3.073c0,1.982,0,10.406,0,10.406h0.004c0,1.706,0.646,3.41,1.943,4.708
								c2.596,2.594,6.815,2.596,9.416-0.002l2.369-2.37c0,0-2.269-1.044-4.078,0.671c-1.809,1.715-4.349,1.652-6.002-0.002
								c-0.829-0.829-1.242-1.917-1.242-3.005l0,0v-0.013c0.004-1.063,0.402-2.125,1.196-2.943l0.126-0.123
								c1.661-1.577,4.297-1.552,5.924,0.079l3.855,3.854l0,0l3.855,3.853c1.299,1.298,3.002,1.947,4.707,1.946
								c1.697,0,3.393-0.644,4.689-1.927l4.756-4.371c0,0.931,0,5.338,0,6.331c2.615,0,2.41-3.074,2.41-3.074v-4.945v-0.525
								l1.206-1.109l0.037-0.033c0.803-0.804,1.869-1.244,3.003-1.244c1.135-0.002,2.201,0.44,3.004,1.244
								c0.803,0.802,1.244,1.867,1.244,3.001v3.931c0.03,0.783,0.312,2.756,2.411,2.756v-6.687
								C-17.4,105.056-18.096,103.385-19.351,102.128z"/>
						</defs>
						<clipPath id="SVGID_18_">
							<use xlink:href="#SVGID_107_"  overflow="visible"/>
						</clipPath>
						<g clip-path="url(#SVGID_18_)">
							<rect x="-26" y="50.479" fill="none" width="46.5" height="50.479"/>
							<g>
								<rect x="-26" y="50.479" fill-rule="evenodd" clip-rule="evenodd" fill="#FFE599" width="46.5" height="50.479"/>
							</g>
						</g>
						<g clip-path="url(#SVGID_18_)">
							<rect x="-26" y="100.959" fill="none" width="46.5" height="50.479"/>
							<g>
								<rect x="-26" y="100.959" fill-rule="evenodd" clip-rule="evenodd" fill="#FFE599" width="46.5" height="50.479"/>
							</g>
						</g>
					</g>
				</g>
				<g>
					<g>
						<defs>
							<path id="SVGID_109_" d="M-33.655,105.46c0,0,0.928,3.475-2.113,6.376s2.658,3.685,2.658,3.685l5.367-0.587
								c0,0,1.553-1.614,1.613-3.633c0.061-2.021-0.271-2.744-0.512-4.99c0,0,1.924-2.982,2.064-3.344s1.674-2.777-0.271-4.18
								c-1.943-1.402-5.607-2.685-6.376-2.359c-0.77,0.325-1.811,2.541-1.899,3.219c-0.092,0.68-0.272,3.755-0.272,3.755
								L-33.655,105.46z"/>
						</defs>
						<clipPath id="SVGID_20_">
							<use xlink:href="#SVGID_109_"  overflow="visible"/>
						</clipPath>
						<g clip-path="url(#SVGID_20_)">
							<rect x="-26" y="50.479" fill="none" width="46.5" height="50.479"/>
							<g>
								<rect x="-26" y="50.479" fill-rule="evenodd" clip-rule="evenodd" fill="#FFE599" width="46.5" height="50.479"/>
							</g>
						</g>
						<g clip-path="url(#SVGID_20_)">
							<rect x="-26" y="100.959" fill="none" width="46.5" height="50.479"/>
							<g>
								<rect x="-26" y="100.959" fill-rule="evenodd" clip-rule="evenodd" fill="#FFE599" width="46.5" height="50.479"/>
							</g>
						</g>
					</g>
				</g>
			</g>
		</g>
	</g>
</g>
<g>
	<g>
		<circle fill-rule="evenodd" clip-rule="evenodd" fill="#18C49F" cx="35.023" cy="105" r="35.023"/>
	</g>
	<g>
		<g>
			<g>
				<defs>
					<path id="SVGID_117_" d="M59.981,95.634l-2.753-1.588l-6.955-4.018l-2.752-1.587c-0.145-0.086-0.3-0.145-0.46-0.181
						c-0.104-0.022-0.212-0.037-0.313-0.039c-0.583-0.016-1.155,0.279-1.467,0.82l-0.945,1.642c-0.152-0.631-0.667-1.12-1.311-1.232
						c-0.093-0.017-0.187-0.024-0.286-0.024h-3.174H31.53h-3.175c-0.906,0-1.638,0.734-1.639,1.638h0.001l-0.001,1.16l-1.841-3.183
						c-0.312-0.541-0.882-0.836-1.465-0.82c-0.053,0.001-0.103,0.007-0.155,0.012c-0.213,0.027-0.425,0.094-0.617,0.208
						l-2.754,1.587l-6.958,4.018l-0.712,0.411l-2.037,1.177c-0.084,0.047-0.161,0.105-0.232,0.164
						c-0.223,0.187-0.386,0.42-0.485,0.68c-0.163,0.444-0.137,0.954,0.118,1.394l13.31,23.052c0.452,0.784,1.455,1.053,2.239,0.6
						l3.813-2.201h2.59h8.035h1.653l1.062,0.613l0.77,0.444l1.983,1.144c0.636,0.368,1.418,0.259,1.93-0.215
						c0.12-0.107,0.227-0.239,0.309-0.385l1.511-2.616l10.289-17.818l0.465-0.805l1.045-1.814c0.141-0.242,0.212-0.509,0.218-0.772
						C60.813,96.515,60.52,95.946,59.981,95.634z M15.901,105.616l-3.292-5.708c1.332-0.884,1.913-2.519,1.503-4.015l6.783-3.916
						c1.09,1.104,2.795,1.417,4.229,0.705l1.594,2.756l-0.001,2.507c-1.919-0.26-4.116,0.161-6.132,1.325
						C17.934,100.801,16.246,103.232,15.901,105.616z M22.639,117.283l-3.296-5.709c2.107,0.842,4.848,0.672,7.374-0.627v3.715v3.02
						c0,0.057,0.001,0.111,0.006,0.166C25.634,116.859,24.012,116.601,22.639,117.283z M28.322,94.344
						c1.597-0.101,2.919-1.228,3.311-2.727h7.833c0.347,1.336,1.433,2.375,2.794,2.658l-2.521,4.367
						c-1.236-0.55-2.664-0.865-4.189-0.865c-3.061,0-5.739,1.263-7.227,3.155V94.344z M31.633,117.13
						c-0.392-1.501-1.714-2.625-3.311-2.728v-6.587c1.024,1.301,2.613,2.306,4.5,2.805l-0.849,1.472
						c-0.292,0.506-0.286,1.101-0.03,1.583c0.016,0.032,0.032,0.063,0.052,0.094c0.138,0.226,0.333,0.421,0.576,0.563l4.851,2.797
						L31.633,117.13z M47.521,117.283c-1.437-0.713-3.142-0.399-4.232,0.702l-6.781-3.913c0.412-1.498-0.167-3.131-1.505-4.018
						l3.295-5.706c0.344,2.382,2.033,4.816,4.683,6.344c2.646,1.531,5.601,1.775,7.834,0.881L47.521,117.283z M51.423,107.643
						c-0.134,0.229-0.424,0.307-0.653,0.177l-0.634-0.365l-0.17,0.273c-0.768,1.218-1.993,2.883-3.084,2.257
						c-0.422-0.24-0.898-0.8-0.327-1.797c0.536-0.928,1.209-0.99,1.646-0.738c0.561,0.321,0.439,0.957,0.375,1.163
						c0.273-0.141,0.655-0.41,1.102-1.047l0.183-0.27l-2.509-1.438l-0.23,0.24c-1.234,1.203-2.612,2.257-4.049,1.433
						c-0.866-0.498-1.691-1.732-0.52-4.055l0.152-0.285l-0.647-0.372c-0.228-0.131-0.307-0.422-0.176-0.651
						c0.131-0.226,0.421-0.305,0.65-0.177l0.645,0.373l0.15-0.259c0.691-1.04,1.956-2.726,2.989-2.135
						c0.294,0.17,0.769,0.644,0.223,1.592c-0.515,0.897-1.12,1.011-1.5,0.793c-0.366-0.209-0.405-0.613-0.338-0.899
						c-0.183,0.059-0.619,0.228-1.059,0.83l-0.182,0.24l1.979,1.135l0.213-0.222c2.116-2.555,3.709-1.924,4.359-1.551
						c0.602,0.344,2.028,1.545,0.72,4.466l-0.134,0.267l0.648,0.375C51.473,107.123,51.551,107.414,51.423,107.643z M54.257,105.617
						c-0.344-2.385-2.035-4.817-4.681-6.347c-2.648-1.53-5.6-1.776-7.837-0.88l3.294-5.708c1.436,0.712,3.141,0.399,4.232-0.705
						l6.78,3.916c-0.411,1.496,0.172,3.13,1.505,4.015L54.257,105.617z"/>
				</defs>
				<clipPath id="SVGID_22_">
					<use xlink:href="#SVGID_117_"  overflow="visible"/>
				</clipPath>
				<g clip-path="url(#SVGID_22_)">
					<rect x="20.5" y="50.479" fill="none" width="46.5" height="50.479"/>
					<g>
						<rect x="20.5" y="50.479" fill-rule="evenodd" clip-rule="evenodd" fill="#FFD24D" width="46.5" height="50.479"/>
					</g>
				</g>
				<g clip-path="url(#SVGID_22_)">
					<rect x="20.5" y="100.959" fill="none" width="46.5" height="50.479"/>
					<g>
						<rect x="20.5" y="100.959" fill-rule="evenodd" clip-rule="evenodd" fill="#FFD24D" width="46.5" height="50.479"/>
					</g>
				</g>
				<g clip-path="url(#SVGID_22_)">
					<rect x="-26" y="50.479" fill="none" width="46.5" height="50.479"/>
					<g>
						<rect x="-26" y="50.479" fill-rule="evenodd" clip-rule="evenodd" fill="#FFD24D" width="46.5" height="50.479"/>
					</g>
				</g>
				<g clip-path="url(#SVGID_22_)">
					<rect x="-26" y="100.959" fill="none" width="46.5" height="50.479"/>
					<g>
						<rect x="-26" y="100.959" fill-rule="evenodd" clip-rule="evenodd" fill="#FFD24D" width="46.5" height="50.479"/>
					</g>
				</g>
				<g clip-path="url(#SVGID_22_)">
					<rect x="20.5" y="50.479" fill="none" width="46.5" height="50.479"/>
					<g>
						<rect x="20.5" y="50.479" fill-rule="evenodd" clip-rule="evenodd" fill="#FFD24D" width="46.5" height="50.479"/>
					</g>
				</g>
				<g clip-path="url(#SVGID_22_)">
					<rect x="20.5" y="100.959" fill="none" width="46.5" height="50.479"/>
					<g>
						<rect x="20.5" y="100.959" fill-rule="evenodd" clip-rule="evenodd" fill="#FFD24D" width="46.5" height="50.479"/>
					</g>
				</g>
				<g clip-path="url(#SVGID_22_)">
					<rect x="-26" y="50.479" fill="none" width="46.5" height="50.479"/>
					<g>
						<rect x="-26" y="50.479" fill-rule="evenodd" clip-rule="evenodd" fill="#FFD24D" width="46.5" height="50.479"/>
					</g>
				</g>
				<g clip-path="url(#SVGID_22_)">
					<rect x="-26" y="100.959" fill="none" width="46.5" height="50.479"/>
					<g>
						<rect x="-26" y="100.959" fill-rule="evenodd" clip-rule="evenodd" fill="#FFD24D" width="46.5" height="50.479"/>
					</g>
				</g>
				<g clip-path="url(#SVGID_22_)">
					<rect x="20.5" y="100.959" fill="none" width="46.5" height="50.479"/>
					<g>
						<rect x="20.5" y="100.959" fill-rule="evenodd" clip-rule="evenodd" fill="#FFD24D" width="46.5" height="50.479"/>
					</g>
				</g>
				<g clip-path="url(#SVGID_22_)">
					<rect x="-26" y="100.959" fill="none" width="46.5" height="50.479"/>
					<g>
						<rect x="-26" y="100.959" fill-rule="evenodd" clip-rule="evenodd" fill="#FFD24D" width="46.5" height="50.479"/>
					</g>
				</g>
				<g clip-path="url(#SVGID_22_)">
					<rect x="20.5" y="50.479" fill="none" width="46.5" height="50.479"/>
					<g>
						<rect x="20.5" y="50.479" fill-rule="evenodd" clip-rule="evenodd" fill="#FFD24D" width="46.5" height="50.479"/>
					</g>
				</g>
				<g clip-path="url(#SVGID_22_)">
					<rect x="20.5" y="100.959" fill="none" width="46.5" height="50.479"/>
					<g>
						<rect x="20.5" y="100.959" fill-rule="evenodd" clip-rule="evenodd" fill="#FFD24D" width="46.5" height="50.479"/>
					</g>
				</g>
				<g clip-path="url(#SVGID_22_)">
					<rect x="20.5" y="100.959" fill="none" width="46.5" height="50.479"/>
					<g>
						<rect x="20.5" y="100.959" fill-rule="evenodd" clip-rule="evenodd" fill="#FFD24D" width="46.5" height="50.479"/>
					</g>
				</g>
				<g clip-path="url(#SVGID_22_)">
					<rect x="20.5" y="50.479" fill="none" width="46.5" height="50.479"/>
					<g>
						<rect x="20.5" y="50.479" fill-rule="evenodd" clip-rule="evenodd" fill="#FFD24D" width="46.5" height="50.479"/>
					</g>
				</g>
				<g clip-path="url(#SVGID_22_)">
					<rect x="20.5" y="100.959" fill="none" width="46.5" height="50.479"/>
					<g>
						<rect x="20.5" y="100.959" fill-rule="evenodd" clip-rule="evenodd" fill="#FFD24D" width="46.5" height="50.479"/>
					</g>
				</g>
				<g clip-path="url(#SVGID_22_)">
					<rect x="20.5" y="50.479" fill="none" width="46.5" height="50.479"/>
					<g>
						<rect x="20.5" y="50.479" fill-rule="evenodd" clip-rule="evenodd" fill="#FFD24D" width="46.5" height="50.479"/>
					</g>
				</g>
				<g clip-path="url(#SVGID_22_)">
					<rect x="20.5" y="100.959" fill="none" width="46.5" height="50.479"/>
					<g>
						<rect x="20.5" y="100.959" fill-rule="evenodd" clip-rule="evenodd" fill="#FFD24D" width="46.5" height="50.479"/>
					</g>
				</g>
			</g>
		</g>
		<g>
			<g>
				<defs>
					<path id="SVGID_119_" d="M42.807,103.621c-0.279,0.557-0.473,1.436,0.16,1.799c0.509,0.293,1.051-0.112,1.584-0.8l0.223-0.243
						l-1.815-1.041L42.807,103.621z"/>
				</defs>
				<clipPath id="SVGID_24_">
					<use xlink:href="#SVGID_119_"  overflow="visible"/>
				</clipPath>
				<g clip-path="url(#SVGID_24_)">
					<rect x="20.5" y="100.959" fill="none" width="46.5" height="50.479"/>
					<g>
						<rect x="20.5" y="100.959" fill-rule="evenodd" clip-rule="evenodd" fill="#FFD24D" width="46.5" height="50.479"/>
					</g>
				</g>
			</g>
		</g>
		<g>
			<g>
				<defs>
					<path id="SVGID_121_" d="M50.265,104.064c-0.676-0.385-1.399,0.199-2.004,0.87l-0.216,0.221l2.284,1.313l0.126-0.275
						C50.717,105.596,51.01,104.492,50.265,104.064z"/>
				</defs>
				<clipPath id="SVGID_26_">
					<use xlink:href="#SVGID_121_"  overflow="visible"/>
				</clipPath>
				<g clip-path="url(#SVGID_26_)">
					<rect x="20.5" y="100.959" fill="none" width="46.5" height="50.479"/>
					<g>
						<rect x="20.5" y="100.959" fill-rule="evenodd" clip-rule="evenodd" fill="#FFD24D" width="46.5" height="50.479"/>
					</g>
				</g>
			</g>
		</g>
	</g>
	<g>
		<defs>
			<rect id="SVGID_123_" x="6.899" y="81.494" width="28.747" height="47.725"/>
		</defs>
		<clipPath id="SVGID_28_">
			<use xlink:href="#SVGID_123_"  overflow="visible"/>
		</clipPath>
		<g clip-path="url(#SVGID_28_)">
			<g>
				<g>
					<defs>
						<path id="SVGID_125_" d="M59.981,95.634l-2.753-1.588l-6.955-4.018l-2.752-1.587c-0.145-0.086-0.3-0.145-0.46-0.181
							c-0.104-0.022-0.212-0.037-0.313-0.039c-0.583-0.016-1.155,0.279-1.467,0.82l-0.945,1.642
							c-0.152-0.631-0.667-1.12-1.311-1.232c-0.093-0.017-0.187-0.024-0.286-0.024h-3.174H31.53h-3.175
							c-0.906,0-1.638,0.734-1.639,1.638h0.001l-0.001,1.16l-1.841-3.183c-0.312-0.541-0.882-0.836-1.465-0.82
							c-0.053,0.001-0.103,0.007-0.155,0.012c-0.213,0.027-0.425,0.094-0.617,0.208l-2.754,1.587l-6.958,4.018l-0.712,0.411
							l-2.037,1.177c-0.084,0.047-0.161,0.105-0.232,0.164c-0.223,0.187-0.386,0.42-0.485,0.68
							c-0.163,0.444-0.137,0.954,0.118,1.394l13.31,23.052c0.452,0.784,1.455,1.053,2.239,0.6l3.813-2.201h2.59h8.035h1.653
							l1.062,0.613l0.77,0.444l1.983,1.144c0.636,0.368,1.418,0.259,1.93-0.215c0.12-0.107,0.227-0.239,0.309-0.385l1.511-2.616
							l10.289-17.818l0.465-0.805l1.045-1.814c0.141-0.242,0.212-0.509,0.218-0.772C60.813,96.515,60.52,95.946,59.981,95.634z
							 M15.901,105.616l-3.292-5.708c1.332-0.884,1.913-2.519,1.503-4.015l6.783-3.916c1.09,1.104,2.795,1.417,4.229,0.705
							l1.594,2.756l-0.001,2.507c-1.919-0.26-4.116,0.161-6.132,1.325C17.934,100.801,16.246,103.232,15.901,105.616z
							 M22.639,117.283l-3.296-5.709c2.107,0.842,4.848,0.672,7.374-0.627v3.715v3.02c0,0.057,0.001,0.111,0.006,0.166
							C25.634,116.859,24.012,116.601,22.639,117.283z M28.322,94.344c1.597-0.101,2.919-1.228,3.311-2.727h7.833
							c0.347,1.336,1.433,2.375,2.794,2.658l-2.521,4.367c-1.236-0.55-2.664-0.865-4.189-0.865c-3.061,0-5.739,1.263-7.227,3.155
							V94.344z M31.633,117.13c-0.392-1.501-1.714-2.625-3.311-2.728v-6.587c1.024,1.301,2.613,2.306,4.5,2.805l-0.849,1.472
							c-0.292,0.506-0.286,1.101-0.03,1.583c0.016,0.032,0.032,0.063,0.052,0.094c0.138,0.226,0.333,0.421,0.576,0.563l4.851,2.797
							L31.633,117.13z M47.521,117.283c-1.437-0.713-3.142-0.399-4.232,0.702l-6.781-3.913c0.412-1.498-0.167-3.131-1.505-4.018
							l3.295-5.706c0.344,2.382,2.033,4.816,4.683,6.344c2.646,1.531,5.601,1.775,7.834,0.881L47.521,117.283z M51.423,107.643
							c-0.134,0.229-0.424,0.307-0.653,0.177l-0.634-0.365l-0.17,0.273c-0.768,1.218-1.993,2.883-3.084,2.257
							c-0.422-0.24-0.898-0.8-0.327-1.797c0.536-0.928,1.209-0.99,1.646-0.738c0.561,0.321,0.439,0.957,0.375,1.163
							c0.273-0.141,0.655-0.41,1.102-1.047l0.183-0.27l-2.509-1.438l-0.23,0.24c-1.234,1.203-2.612,2.257-4.049,1.433
							c-0.866-0.498-1.691-1.732-0.52-4.055l0.152-0.285l-0.647-0.372c-0.228-0.131-0.307-0.422-0.176-0.651
							c0.131-0.226,0.421-0.305,0.65-0.177l0.645,0.373l0.15-0.259c0.691-1.04,1.956-2.726,2.989-2.135
							c0.294,0.17,0.769,0.644,0.223,1.592c-0.515,0.897-1.12,1.011-1.5,0.793c-0.366-0.209-0.405-0.613-0.338-0.899
							c-0.183,0.059-0.619,0.228-1.059,0.83l-0.182,0.24l1.979,1.135l0.213-0.222c2.116-2.555,3.709-1.924,4.359-1.551
							c0.602,0.344,2.028,1.545,0.72,4.466l-0.134,0.267l0.648,0.375C51.473,107.123,51.551,107.414,51.423,107.643z
							 M54.257,105.617c-0.344-2.385-2.035-4.817-4.681-6.347c-2.648-1.53-5.6-1.776-7.837-0.88l3.294-5.708
							c1.436,0.712,3.141,0.399,4.232-0.705l6.78,3.916c-0.411,1.496,0.172,3.13,1.505,4.015L54.257,105.617z"/>
					</defs>
					<clipPath id="SVGID_30_">
						<use xlink:href="#SVGID_125_"  overflow="visible"/>
					</clipPath>
					<g clip-path="url(#SVGID_30_)">
						<rect x="20.5" y="50.479" fill="none" width="46.5" height="50.479"/>
						<g>
							<rect x="20.5" y="50.479" fill-rule="evenodd" clip-rule="evenodd" fill="#FFE599" width="46.5" height="50.479"/>
						</g>
					</g>
					<g clip-path="url(#SVGID_30_)">
						<rect x="20.5" y="100.959" fill="none" width="46.5" height="50.479"/>
						<g>
							<rect x="20.5" y="100.959" fill-rule="evenodd" clip-rule="evenodd" fill="#FFE599" width="46.5" height="50.479"/>
						</g>
					</g>
					<g clip-path="url(#SVGID_30_)">
						<rect x="-26" y="50.479" fill="none" width="46.5" height="50.479"/>
						<g>
							<rect x="-26" y="50.479" fill-rule="evenodd" clip-rule="evenodd" fill="#FFE599" width="46.5" height="50.479"/>
						</g>
					</g>
					<g clip-path="url(#SVGID_30_)">
						<rect x="-26" y="100.959" fill="none" width="46.5" height="50.479"/>
						<g>
							<rect x="-26" y="100.959" fill-rule="evenodd" clip-rule="evenodd" fill="#FFE599" width="46.5" height="50.479"/>
						</g>
					</g>
					<g clip-path="url(#SVGID_30_)">
						<rect x="20.5" y="50.479" fill="none" width="46.5" height="50.479"/>
						<g>
							<rect x="20.5" y="50.479" fill-rule="evenodd" clip-rule="evenodd" fill="#FFE599" width="46.5" height="50.479"/>
						</g>
					</g>
					<g clip-path="url(#SVGID_30_)">
						<rect x="20.5" y="100.959" fill="none" width="46.5" height="50.479"/>
						<g>
							<rect x="20.5" y="100.959" fill-rule="evenodd" clip-rule="evenodd" fill="#FFE599" width="46.5" height="50.479"/>
						</g>
					</g>
					<g clip-path="url(#SVGID_30_)">
						<rect x="-26" y="50.479" fill="none" width="46.5" height="50.479"/>
						<g>
							<rect x="-26" y="50.479" fill-rule="evenodd" clip-rule="evenodd" fill="#FFE599" width="46.5" height="50.479"/>
						</g>
					</g>
					<g clip-path="url(#SVGID_30_)">
						<rect x="-26" y="100.959" fill="none" width="46.5" height="50.479"/>
						<g>
							<rect x="-26" y="100.959" fill-rule="evenodd" clip-rule="evenodd" fill="#FFE599" width="46.5" height="50.479"/>
						</g>
					</g>
					<g clip-path="url(#SVGID_30_)">
						<rect x="20.5" y="100.959" fill="none" width="46.5" height="50.479"/>
						<g>
							<rect x="20.5" y="100.959" fill-rule="evenodd" clip-rule="evenodd" fill="#FFE599" width="46.5" height="50.479"/>
						</g>
					</g>
					<g clip-path="url(#SVGID_30_)">
						<rect x="-26" y="100.959" fill="none" width="46.5" height="50.479"/>
						<g>
							<rect x="-26" y="100.959" fill-rule="evenodd" clip-rule="evenodd" fill="#FFE599" width="46.5" height="50.479"/>
						</g>
					</g>
					<g clip-path="url(#SVGID_30_)">
						<rect x="20.5" y="50.479" fill="none" width="46.5" height="50.479"/>
						<g>
							<rect x="20.5" y="50.479" fill-rule="evenodd" clip-rule="evenodd" fill="#FFE599" width="46.5" height="50.479"/>
						</g>
					</g>
					<g clip-path="url(#SVGID_30_)">
						<rect x="20.5" y="100.959" fill="none" width="46.5" height="50.479"/>
						<g>
							<rect x="20.5" y="100.959" fill-rule="evenodd" clip-rule="evenodd" fill="#FFE599" width="46.5" height="50.479"/>
						</g>
					</g>
					<g clip-path="url(#SVGID_30_)">
						<rect x="20.5" y="100.959" fill="none" width="46.5" height="50.479"/>
						<g>
							<rect x="20.5" y="100.959" fill-rule="evenodd" clip-rule="evenodd" fill="#FFE599" width="46.5" height="50.479"/>
						</g>
					</g>
					<g clip-path="url(#SVGID_30_)">
						<rect x="20.5" y="50.479" fill="none" width="46.5" height="50.479"/>
						<g>
							<rect x="20.5" y="50.479" fill-rule="evenodd" clip-rule="evenodd" fill="#FFE599" width="46.5" height="50.479"/>
						</g>
					</g>
					<g clip-path="url(#SVGID_30_)">
						<rect x="20.5" y="100.959" fill="none" width="46.5" height="50.479"/>
						<g>
							<rect x="20.5" y="100.959" fill-rule="evenodd" clip-rule="evenodd" fill="#FFE599" width="46.5" height="50.479"/>
						</g>
					</g>
					<g clip-path="url(#SVGID_30_)">
						<rect x="20.5" y="50.479" fill="none" width="46.5" height="50.479"/>
						<g>
							<rect x="20.5" y="50.479" fill-rule="evenodd" clip-rule="evenodd" fill="#FFE599" width="46.5" height="50.479"/>
						</g>
					</g>
					<g clip-path="url(#SVGID_30_)">
						<rect x="20.5" y="100.959" fill="none" width="46.5" height="50.479"/>
						<g>
							<rect x="20.5" y="100.959" fill-rule="evenodd" clip-rule="evenodd" fill="#FFE599" width="46.5" height="50.479"/>
						</g>
					</g>
				</g>
			</g>
			<g>
				<g>
					<defs>
						<path id="SVGID_127_" d="M42.807,103.621c-0.279,0.557-0.473,1.436,0.16,1.799c0.509,0.293,1.051-0.112,1.584-0.8l0.223-0.243
							l-1.815-1.041L42.807,103.621z"/>
					</defs>
					<clipPath id="SVGID_32_">
						<use xlink:href="#SVGID_127_"  overflow="visible"/>
					</clipPath>
					<g clip-path="url(#SVGID_32_)">
						<rect x="20.5" y="100.959" fill="none" width="46.5" height="50.479"/>
						<g>
							<rect x="20.5" y="100.959" fill-rule="evenodd" clip-rule="evenodd" fill="#FFE599" width="46.5" height="50.479"/>
						</g>
					</g>
				</g>
			</g>
			<g>
				<g>
					<defs>
						<path id="SVGID_129_" d="M50.265,104.064c-0.676-0.385-1.399,0.199-2.004,0.87l-0.216,0.221l2.284,1.313l0.126-0.275
							C50.717,105.596,51.01,104.492,50.265,104.064z"/>
					</defs>
					<clipPath id="SVGID_34_">
						<use xlink:href="#SVGID_129_"  overflow="visible"/>
					</clipPath>
					<g clip-path="url(#SVGID_34_)">
						<rect x="20.5" y="100.959" fill="none" width="46.5" height="50.479"/>
						<g>
							<rect x="20.5" y="100.959" fill-rule="evenodd" clip-rule="evenodd" fill="#FFE599" width="46.5" height="50.479"/>
						</g>
					</g>
				</g>
			</g>
		</g>
	</g>
</g>
<g>
	<path fill="url(#新增圖樣色票_1)" d="M59.981,25.651l-2.753-1.588l-6.955-4.018l-2.752-1.587
		c-0.145-0.086-0.3-0.145-0.46-0.181c-0.104-0.022-0.212-0.037-0.313-0.039c-0.583-0.016-1.155,0.279-1.467,0.82L44.336,20.7
		c-0.152-0.631-0.667-1.12-1.311-1.232c-0.093-0.017-0.187-0.024-0.286-0.024h-3.174H31.53h-3.175c-0.906,0-1.638,0.734-1.639,1.638
		h0.001l-0.001,1.16l-1.841-3.183c-0.312-0.541-0.882-0.836-1.465-0.82c-0.053,0.001-0.103,0.007-0.155,0.012
		c-0.213,0.027-0.425,0.094-0.617,0.208l-2.754,1.587l-6.958,4.018l-0.712,0.411l-2.037,1.177c-0.084,0.047-0.161,0.105-0.232,0.164
		c-0.223,0.187-0.386,0.42-0.485,0.68c-0.163,0.444-0.137,0.954,0.118,1.394l13.31,23.052c0.452,0.784,1.455,1.053,2.239,0.6
		l3.813-2.201h2.59h8.035h1.653l1.062,0.613l0.77,0.444l1.983,1.144c0.636,0.368,1.418,0.259,1.93-0.215
		c0.12-0.107,0.227-0.239,0.309-0.385l1.511-2.616l10.289-17.818l0.465-0.805l1.045-1.814c0.141-0.242,0.212-0.509,0.218-0.772
		C60.813,26.533,60.52,25.963,59.981,25.651z M15.901,35.634l-3.292-5.708c1.332-0.884,1.913-2.519,1.503-4.015l6.783-3.916
		c1.09,1.104,2.795,1.417,4.229,0.705l1.594,2.756l-0.001,2.507c-1.919-0.26-4.116,0.161-6.132,1.325
		C17.934,30.819,16.246,33.25,15.901,35.634z M22.639,47.301l-3.296-5.709c2.107,0.842,4.848,0.672,7.374-0.627v3.715v3.02
		c0,0.057,0.001,0.111,0.006,0.166C25.634,46.877,24.012,46.619,22.639,47.301z M28.322,24.362c1.597-0.101,2.919-1.228,3.311-2.727
		h7.833c0.347,1.336,1.433,2.375,2.794,2.658l-2.521,4.367c-1.236-0.55-2.664-0.865-4.189-0.865c-3.061,0-5.739,1.263-7.227,3.155
		V24.362z M31.633,47.148c-0.392-1.501-1.714-2.625-3.311-2.728v-6.587c1.024,1.301,2.613,2.306,4.5,2.805l-0.849,1.472
		c-0.292,0.506-0.286,1.101-0.03,1.583c0.016,0.032,0.032,0.063,0.052,0.094c0.138,0.226,0.333,0.421,0.576,0.563l4.851,2.797
		L31.633,47.148z M47.521,47.301c-1.437-0.713-3.142-0.399-4.232,0.702l-6.781-3.913c0.412-1.498-0.167-3.131-1.505-4.018
		l3.295-5.706c0.344,2.382,2.033,4.816,4.683,6.344c2.646,1.531,5.601,1.775,7.834,0.881L47.521,47.301z M51.423,37.66
		c-0.134,0.229-0.424,0.307-0.653,0.177l-0.634-0.365l-0.17,0.273c-0.768,1.218-1.993,2.883-3.084,2.257
		c-0.422-0.24-0.898-0.8-0.327-1.797c0.536-0.928,1.209-0.99,1.646-0.738c0.561,0.321,0.439,0.957,0.375,1.163
		c0.273-0.141,0.655-0.41,1.102-1.047l0.183-0.27l-2.509-1.438l-0.23,0.24c-1.234,1.203-2.612,2.257-4.049,1.433
		c-0.866-0.498-1.691-1.732-0.52-4.055l0.152-0.285l-0.647-0.372c-0.228-0.131-0.307-0.422-0.176-0.651
		c0.131-0.226,0.421-0.305,0.65-0.177l0.645,0.373l0.15-0.259c0.691-1.04,1.956-2.726,2.989-2.135
		c0.294,0.17,0.769,0.644,0.223,1.592c-0.515,0.897-1.12,1.011-1.5,0.793c-0.366-0.209-0.405-0.613-0.338-0.899
		c-0.183,0.059-0.619,0.228-1.059,0.83l-0.182,0.24l1.979,1.135l0.213-0.222c2.116-2.555,3.709-1.924,4.359-1.551
		c0.602,0.344,2.028,1.545,0.72,4.466l-0.134,0.267l0.648,0.375C51.473,37.141,51.551,37.432,51.423,37.66z M54.257,35.635
		c-0.344-2.385-2.035-4.817-4.681-6.347c-2.648-1.53-5.6-1.776-7.837-0.88l3.294-5.708c1.436,0.712,3.141,0.399,4.232-0.705
		l6.78,3.916c-0.411,1.496,0.172,3.13,1.505,4.015L54.257,35.635z"/>
	<path fill="url(#新增圖樣色票_1)" d="M42.807,33.638c-0.279,0.557-0.473,1.436,0.16,1.799c0.509,0.293,1.051-0.112,1.584-0.8
		l0.223-0.243l-1.815-1.041L42.807,33.638z"/>
	<path fill="url(#新增圖樣色票_1)" d="M50.265,34.082c-0.676-0.385-1.399,0.199-2.004,0.87l-0.216,0.221l2.284,1.313
		l0.126-0.275C50.717,35.613,51.01,34.509,50.265,34.082z"/>
</g>
</svg>
