<?xml version="1.0" encoding="utf-8"?>
<!-- Generator: Adobe Illustrator 16.0.0, SVG Export Plug-In . SVG Version: 6.00 Build 0)  -->
<!DOCTYPE svg PUBLIC "-//W3C//DTD SVG 1.1//EN" "http://www.w3.org/Graphics/SVG/1.1/DTD/svg11.dtd" [
	<!ENTITY ns_flows "http://ns.adobe.com/Flows/1.0/">
	<!ENTITY ns_extend "http://ns.adobe.com/Extensibility/1.0/">
	<!ENTITY ns_ai "http://ns.adobe.com/AdobeIllustrator/10.0/">
	<!ENTITY ns_graphs "http://ns.adobe.com/Graphs/1.0/">
	<!ENTITY ns_vars "http://ns.adobe.com/Variables/1.0/">
	<!ENTITY ns_imrep "http://ns.adobe.com/ImageReplacement/1.0/">
	<!ENTITY ns_sfw "http://ns.adobe.com/SaveForWeb/1.0/">
	<!ENTITY ns_custom "http://ns.adobe.com/GenericCustomNamespace/1.0/">
	<!ENTITY ns_adobe_xpath "http://ns.adobe.com/XPath/1.0/">
]>
<svg version="1.1" id="栝鍣_1" xmlns:x="&ns_extend;" xmlns:i="&ns_ai;" xmlns:graph="&ns_graphs;"
	 xmlns="http://www.w3.org/2000/svg" xmlns:xlink="http://www.w3.org/1999/xlink" xmlns:a="http://ns.adobe.com/AdobeSVGViewerExtensions/3.0/"
	 x="0px" y="0px" width="70px" height="140px" viewBox="0 0 70 140" enable-background="new 0 0 70 140" xml:space="preserve">
<metadata>
	<sfw  xmlns="&ns_sfw;">
		<slices></slices>
		<sliceSourceBounds  height="5665.418" width="6913.451" x="-4790" y="-875.568" bottomLeftOrigin="true"></sliceSourceBounds>
	</sfw>
</metadata>
<pattern  x="-1368.5" width="46.333" height="47.334" patternUnits="userSpaceOnUse" id="新增圖樣色票_1" viewBox="0 -47.334 46.333 47.334" overflow="visible">
	<g>
		<polygon fill="none" points="0,0 46.333,0 46.333,-47.334 0,-47.334 		"/>
		<g>
			<polygon fill="#757575" points="46.333,0 0,0 0,-47.334 46.333,-47.334 			"/>
		</g>
	</g>
</pattern>
<g>
	<path fill="url(#新增圖樣色票_1)" d="M20.273,16.921l-1.24,14.166l1.291-0.002c0.045-3.22,1.334-5.149,4.301-5.149
		c2.18,0,4.313,0.843,6.49,1.387c1.336,0.347,2.727,0.543,4.113,0.543c2.869,0.003,5.543-0.689,8.021-2.323l0.348,0.444
		c-6.24,9.063-16.639,11.339-16.639,20.106c0,4.161,3.219,6.984,8.318,6.985c5.648-0.001,7.029-4.409,7.43-7.037
		c1.088-7.38-1.486-14.061,9.012-29.12h-1.484c-1.189,2.523-4.311,2.577-5.396,2.577c-2.131,0.001-3.967-0.598-6.096-1.238
		c-2.18-0.645-4.307-1.339-7.029-1.339c-1.883,0-4.363,0.15-6.488,1.639c-1.146,0.788-2.082,1.779-2.826,1.781
		c-0.887-0.002-0.992-0.991-0.992-1.882c0-0.497,0.053-1.093,0.15-1.538H20.273z"/>
</g>
<g>
	<g>
		<circle fill-rule="evenodd" clip-rule="evenodd" fill="#18C49F" cx="35" cy="105" r="35.023"/>
	</g>
	<g>
		<g>
			<g>
				<defs>
					<path id="SVGID_111_" d="M20.273,86.921l-1.24,14.166l1.291-0.002c0.045-3.22,1.334-5.149,4.301-5.149
						c2.18,0,4.313,0.843,6.49,1.387c1.336,0.347,2.727,0.543,4.113,0.543c2.869,0.003,5.543-0.689,8.021-2.323l0.348,0.444
						c-6.24,9.063-16.639,11.339-16.639,20.106c0,4.161,3.219,6.984,8.318,6.985c5.648-0.001,7.029-4.409,7.43-7.037
						c1.088-7.38-1.486-14.061,9.012-29.12h-1.484c-1.189,2.523-4.311,2.577-5.396,2.577c-2.131,0.001-3.967-0.598-6.096-1.238
						c-2.18-0.645-4.307-1.339-7.029-1.339c-1.883,0-4.363,0.15-6.488,1.639c-1.146,0.788-2.082,1.779-2.826,1.781
						c-0.887-0.002-0.992-0.991-0.992-1.882c0-0.497,0.053-1.093,0.15-1.538H20.273z"/>
				</defs>
				<clipPath id="SVGID_2_">
					<use xlink:href="#SVGID_111_"  overflow="visible"/>
				</clipPath>
				<g clip-path="url(#SVGID_2_)">
					<rect x="26.5" y="50.479" fill="none" width="46.5" height="50.479"/>
					<g>
						<rect x="26.5" y="50.479" fill-rule="evenodd" clip-rule="evenodd" fill="#FFD24D" width="46.5" height="50.479"/>
					</g>
				</g>
				<g clip-path="url(#SVGID_2_)">
					<rect x="26.5" y="100.959" fill="none" width="46.5" height="50.479"/>
					<g>
						<rect x="26.5" y="100.959" fill-rule="evenodd" clip-rule="evenodd" fill="#FFD24D" width="46.5" height="50.479"/>
					</g>
				</g>
				<g clip-path="url(#SVGID_2_)">
					<rect x="-20" y="50.479" fill="none" width="46.5" height="50.479"/>
					<g>
						<rect x="-20" y="50.479" fill-rule="evenodd" clip-rule="evenodd" fill="#FFD24D" width="46.5" height="50.479"/>
					</g>
				</g>
				<g clip-path="url(#SVGID_2_)">
					<rect x="-20" y="100.959" fill="none" width="46.5" height="50.479"/>
					<g>
						<rect x="-20" y="100.959" fill-rule="evenodd" clip-rule="evenodd" fill="#FFD24D" width="46.5" height="50.479"/>
					</g>
				</g>
			</g>
		</g>
	</g>
	<g>
		<defs>
			<rect id="SVGID_113_" x="18.656" y="82.953" width="16.72" height="43.084"/>
		</defs>
		<clipPath id="SVGID_4_">
			<use xlink:href="#SVGID_113_"  overflow="visible"/>
		</clipPath>
		<g clip-path="url(#SVGID_4_)">
			<g>
				<g>
					<defs>
						<path id="SVGID_115_" d="M20.273,86.921l-1.24,14.166l1.291-0.002c0.045-3.22,1.334-5.149,4.301-5.149
							c2.18,0,4.313,0.843,6.49,1.387c1.336,0.347,2.727,0.543,4.113,0.543c2.869,0.003,5.543-0.689,8.021-2.323l0.348,0.444
							c-6.24,9.063-16.639,11.339-16.639,20.106c0,4.161,3.219,6.984,8.318,6.985c5.648-0.001,7.029-4.409,7.43-7.037
							c1.088-7.38-1.486-14.061,9.012-29.12h-1.484c-1.189,2.523-4.311,2.577-5.396,2.577c-2.131,0.001-3.967-0.598-6.096-1.238
							c-2.18-0.645-4.307-1.339-7.029-1.339c-1.883,0-4.363,0.15-6.488,1.639c-1.146,0.788-2.082,1.779-2.826,1.781
							c-0.887-0.002-0.992-0.991-0.992-1.882c0-0.497,0.053-1.093,0.15-1.538H20.273z"/>
					</defs>
					<clipPath id="SVGID_6_">
						<use xlink:href="#SVGID_115_"  overflow="visible"/>
					</clipPath>
					<g clip-path="url(#SVGID_6_)">
						<rect x="26.5" y="50.479" fill="none" width="46.5" height="50.479"/>
						<g>
							<rect x="26.5" y="50.479" fill-rule="evenodd" clip-rule="evenodd" fill="#FFE599" width="46.5" height="50.479"/>
						</g>
					</g>
					<g clip-path="url(#SVGID_6_)">
						<rect x="26.5" y="100.959" fill="none" width="46.5" height="50.479"/>
						<g>
							<rect x="26.5" y="100.959" fill-rule="evenodd" clip-rule="evenodd" fill="#FFE599" width="46.5" height="50.479"/>
						</g>
					</g>
					<g clip-path="url(#SVGID_6_)">
						<rect x="-20" y="50.479" fill="none" width="46.5" height="50.479"/>
						<g>
							<rect x="-20" y="50.479" fill-rule="evenodd" clip-rule="evenodd" fill="#FFE599" width="46.5" height="50.479"/>
						</g>
					</g>
					<g clip-path="url(#SVGID_6_)">
						<rect x="-20" y="100.959" fill="none" width="46.5" height="50.479"/>
						<g>
							<rect x="-20" y="100.959" fill-rule="evenodd" clip-rule="evenodd" fill="#FFE599" width="46.5" height="50.479"/>
						</g>
					</g>
				</g>
			</g>
		</g>
	</g>
</g>
</svg>
