<?xml version="1.0" encoding="utf-8"?>
<!-- Generator: Adobe Illustrator 16.0.0, SVG Export Plug-In . SVG Version: 6.00 Build 0)  -->
<!DOCTYPE svg PUBLIC "-//W3C//DTD SVG 1.1//EN" "http://www.w3.org/Graphics/SVG/1.1/DTD/svg11.dtd" [
	<!ENTITY ns_flows "http://ns.adobe.com/Flows/1.0/">
	<!ENTITY ns_extend "http://ns.adobe.com/Extensibility/1.0/">
	<!ENTITY ns_ai "http://ns.adobe.com/AdobeIllustrator/10.0/">
	<!ENTITY ns_graphs "http://ns.adobe.com/Graphs/1.0/">
	<!ENTITY ns_vars "http://ns.adobe.com/Variables/1.0/">
	<!ENTITY ns_imrep "http://ns.adobe.com/ImageReplacement/1.0/">
	<!ENTITY ns_sfw "http://ns.adobe.com/SaveForWeb/1.0/">
	<!ENTITY ns_custom "http://ns.adobe.com/GenericCustomNamespace/1.0/">
	<!ENTITY ns_adobe_xpath "http://ns.adobe.com/XPath/1.0/">
]>
<svg version="1.1" id="栝鍣_1" xmlns:x="&ns_extend;" xmlns:i="&ns_ai;" xmlns:graph="&ns_graphs;"
	 xmlns="http://www.w3.org/2000/svg" xmlns:xlink="http://www.w3.org/1999/xlink" xmlns:a="http://ns.adobe.com/AdobeSVGViewerExtensions/3.0/"
	 x="0px" y="0px" width="70px" height="140px" viewBox="0 0 70 140" enable-background="new 0 0 70 140" xml:space="preserve">
<metadata>
	<sfw  xmlns="&ns_sfw;">
		<slices></slices>
		<sliceSourceBounds  height="5665.418" width="6913.451" x="-4790" y="-875.568" bottomLeftOrigin="true"></sliceSourceBounds>
	</sfw>
</metadata>
<pattern  x="-1188.5" y="-163" width="46.333" height="47.334" patternUnits="userSpaceOnUse" id="新增圖樣色票_1" viewBox="0 -47.334 46.333 47.334" overflow="visible">
	<g>
		<polygon fill="none" points="0,0 46.333,0 46.333,-47.334 0,-47.334 		"/>
		<g>
			<polygon fill="#757575" points="46.333,0 0,0 0,-47.334 46.333,-47.334 			"/>
		</g>
	</g>
</pattern>
<g>
	<path fill-rule="evenodd" clip-rule="evenodd" fill="url(#新增圖樣色票_1)" d="M25.479,19.78c0,0,0.824,0.336,1.734-1.502
		c0,0,1.443-3.636,3.094-3.137c0,0,2.391,0.963,3.344,1.629c0,0,0.949,0.922,2.602,0l2.479-1.379c0,0,1.523-0.835,2.229,0.127
		l1.982,3.009c0,0,0.408,1.085,1.732,1.253l3.096,0.126c0,0,2.025-0.126,2.105,1.752l0.123,3.386c0,0,0.041,1.131,1.117,1.884
		l2.477,1.63c0,0,1.979,0.748,0.74,2.881l-1.113,2.133c0,0-0.783,1.045-0.369,2.006l1.361,2.755c0,0,1.568,2.256-0.992,3.513
		l-1.982,1.253c0,0-0.988,0.336-1.115,1.629l-0.123,3.508c0,0,0.412,1.884-2.105,1.884L44.92,50.24c0,0-0.949-0.163-1.857,1.131
		l-1.359,2.133c0,0-0.869,2.505-3.223,1.003l-2.229-1.13c0,0-1.076-1.003-2.602,0l-2.104,1.13c0,0-1.861,1.375-2.975-0.504
		l-1.488-2.384c0,0-0.412-1.419-1.979-1.379l-3.346-0.122c0,0-1.691,0.122-1.732-2.133v-2.633c0,0,0.205-1.338-0.623-1.878
		l-2.971-1.884c0,0-1.814-0.794-0.74-2.882c1.072-2.088,0.123-0.249,0.123-0.249l1.238-2.383c0,0,0.908-0.713-0.371-3.009
		l-1.238-2.134c0,0-0.787-1.542,0.865-2.377l2.602-1.757c0,0,1.32-0.504,1.115-1.879l0.123-2.887c0,0-0.205-1.588,1.24-1.879
		C21.391,20.156,24.199,19.821,25.479,19.78z M24.045,23.057c-1.162,0.236-1,1.516-1,1.516l-0.096,2.319
		c0.164,1.111-0.896,1.516-0.896,1.516l-2.094,1.412c-1.328,0.671-0.699,1.914-0.699,1.914l0.996,1.716
		c1.029,1.852,0.297,2.424,0.297,2.424l-0.992,1.914c0,0,0.764-1.479-0.1,0.205c-0.869,1.679,0.6,2.318,0.6,2.318l2.391,1.512
		c0.662,0.439,0.498,1.516,0.498,1.516v2.119c0.033,1.815,1.395,1.716,1.395,1.716l2.691,0.1c1.26-0.032,1.598,1.111,1.598,1.111
		l1.193,1.916c0.898,1.516,2.393,0.404,2.393,0.404l1.695-0.908c1.23-0.808,2.094,0,2.094,0l1.791,0.908
		c1.896,1.211,2.596-0.809,2.596-0.809l1.094-1.716c0.73-1.043,1.498-0.907,1.498-0.907l2.393-0.1c2.023,0,1.691-1.516,1.691-1.516
		l0.1-2.823c0.1-1.043,0.898-1.312,0.898-1.312l1.594-1.012c2.061-1.007,0.799-2.823,0.799-2.823l-1.098-2.219
		c-0.332-0.776,0.299-1.616,0.299-1.616l0.898-1.715c0.998-1.716-0.6-2.318-0.6-2.318l-1.99-1.313c-0.863-0.607-0.9-1.516-0.9-1.516
		l-0.098-2.723c-0.064-1.517-1.695-1.411-1.695-1.411l-2.492-0.105c-1.066-0.132-1.396-1.007-1.396-1.007l-1.592-2.419
		C39.229,18.551,38,19.222,38,19.222l-1.992,1.112c-1.33,0.739-2.094,0-2.094,0c-0.766-0.54-2.691-1.312-2.691-1.312
		c-1.33-0.403-2.49,2.522-2.49,2.522c-0.736,1.479-1.398,1.207-1.398,1.207C26.303,22.789,24.045,23.057,24.045,23.057z"/>
	<polygon fill-rule="evenodd" clip-rule="evenodd" fill="url(#新增圖樣色票_1)" points="22.18,34.003 24.244,41.904 
		25.736,41.555 24.475,36.326 28.951,40.624 30.443,40.161 28.26,32.143 26.766,32.61 28.146,37.838 23.672,33.536 	"/>
	<polygon fill-rule="evenodd" clip-rule="evenodd" fill="url(#新增圖樣色票_1)" points="30.098,31.911 32.162,39.694 
		38.018,38.069 37.672,36.789 33.311,37.951 32.738,35.864 36.643,34.815 36.297,33.423 32.395,34.584 31.936,32.724 36.066,31.562 
		35.721,30.286 	"/>
	<polygon fill-rule="evenodd" clip-rule="evenodd" fill="url(#新增圖樣色票_1)" points="36.523,30.051 40.428,37.37 
		42.037,36.907 42.15,30.631 45.25,36.096 46.859,35.628 46.744,27.264 45.133,27.727 45.363,33.423 42.496,28.426 40.773,28.889 
		40.658,34.584 38.018,29.588 	"/>
</g>
<g>
	<g>
		<circle fill-rule="evenodd" clip-rule="evenodd" fill="#18C49F" cx="34.999" cy="104.976" r="35.023"/>
	</g>
	<g>
		<g>
			<g>
				<defs>
					<path id="SVGID_25_" d="M25.478,89.733c0,0,0.826,0.336,1.734-1.502c0,0,1.443-3.636,3.096-3.137c0,0,2.391,0.963,3.344,1.629
						c0,0,0.949,0.922,2.6,0l2.479-1.379c0,0,1.523-0.835,2.229,0.127l1.982,3.009c0,0,0.408,1.085,1.732,1.253l3.096,0.126
						c0,0,2.025-0.126,2.105,1.752l0.125,3.386c0,0,0.041,1.131,1.115,1.884l2.479,1.63c0,0,1.979,0.748,0.74,2.881l-1.113,2.133
						c0,0-0.785,1.045-0.371,2.006l1.361,2.755c0,0,1.57,2.256-0.99,3.513l-1.982,1.253c0,0-0.988,0.336-1.117,1.629l-0.121,3.508
						c0,0,0.412,1.884-2.107,1.884l-2.971,0.122c0,0-0.949-0.163-1.857,1.131l-1.361,2.133c0,0-0.867,2.505-3.223,1.003l-2.229-1.13
						c0,0-1.074-1.003-2.6,0l-2.105,1.13c0,0-1.861,1.375-2.973-0.504l-1.488-2.384c0,0-0.412-1.419-1.979-1.379l-3.346-0.122
						c0,0-1.693,0.122-1.734-2.133v-2.633c0,0,0.205-1.338-0.621-1.878l-2.971-1.884c0,0-1.816-0.794-0.74-2.882
						c1.07-2.088,0.121-0.249,0.121-0.249l1.24-2.383c0,0,0.908-0.713-0.373-3.009l-1.238-2.134c0,0-0.785-1.542,0.865-2.377
						l2.602-1.757c0,0,1.32-0.504,1.115-1.879l0.123-2.887c0,0-0.205-1.588,1.24-1.879C21.39,90.109,24.2,89.774,25.478,89.733z
						 M24.044,93.009c-1.16,0.236-0.998,1.516-0.998,1.516l-0.096,2.319c0.162,1.111-0.898,1.516-0.898,1.516l-2.092,1.412
						c-1.33,0.671-0.699,1.914-0.699,1.914l0.994,1.716c1.029,1.852,0.299,2.424,0.299,2.424l-0.994,1.914
						c0,0,0.764-1.479-0.1,0.205c-0.867,1.679,0.6,2.318,0.6,2.318l2.393,1.512c0.66,0.439,0.498,1.516,0.498,1.516v2.119
						c0.031,1.815,1.393,1.716,1.393,1.716l2.691,0.1c1.262-0.032,1.598,1.111,1.598,1.111l1.193,1.916
						c0.898,1.516,2.393,0.404,2.393,0.404l1.697-0.908c1.229-0.808,2.092,0,2.092,0l1.791,0.908
						c1.898,1.211,2.598-0.809,2.598-0.809l1.094-1.716c0.73-1.043,1.498-0.907,1.498-0.907l2.391-0.1
						c2.023,0,1.693-1.516,1.693-1.516l0.1-2.823c0.1-1.043,0.898-1.312,0.898-1.312l1.594-1.012
						c2.061-1.007,0.799-2.823,0.799-2.823l-1.098-2.219c-0.332-0.776,0.299-1.616,0.299-1.616l0.898-1.715
						c0.996-1.716-0.6-2.318-0.6-2.318l-1.992-1.313c-0.863-0.607-0.898-1.516-0.898-1.516l-0.1-2.723
						c-0.063-1.517-1.693-1.411-1.693-1.411l-2.492-0.105c-1.066-0.132-1.396-1.007-1.396-1.007l-1.594-2.419
						c-0.566-0.775-1.797-0.104-1.797-0.104l-1.992,1.112c-1.328,0.739-2.092,0-2.092,0c-0.768-0.54-2.691-1.312-2.691-1.312
						c-1.33-0.403-2.492,2.522-2.492,2.522c-0.734,1.479-1.396,1.207-1.396,1.207C26.304,92.742,24.044,93.009,24.044,93.009z"/>
				</defs>
				<clipPath id="SVGID_2_">
					<use xlink:href="#SVGID_25_"  overflow="visible"/>
				</clipPath>
				<g clip-path="url(#SVGID_2_)">
					<rect x="20.5" y="38.918" fill="none" width="46.5" height="50.479"/>
					<g>
						<rect x="20.5" y="38.918" fill-rule="evenodd" clip-rule="evenodd" fill="#FFD24D" width="46.5" height="50.479"/>
					</g>
				</g>
				<g clip-path="url(#SVGID_2_)">
					<rect x="20.5" y="89.397" fill="none" width="46.5" height="50.479"/>
					<g>
						<rect x="20.5" y="89.397" fill-rule="evenodd" clip-rule="evenodd" fill="#FFD24D" width="46.5" height="50.479"/>
					</g>
				</g>
				<g clip-path="url(#SVGID_2_)">
					<rect x="-26" y="38.918" fill="none" width="46.5" height="50.479"/>
					<g>
						<rect x="-26" y="38.918" fill-rule="evenodd" clip-rule="evenodd" fill="#FFD24D" width="46.5" height="50.479"/>
					</g>
				</g>
				<g clip-path="url(#SVGID_2_)">
					<rect x="-26" y="89.397" fill="none" width="46.5" height="50.479"/>
					<g>
						<rect x="-26" y="89.397" fill-rule="evenodd" clip-rule="evenodd" fill="#FFD24D" width="46.5" height="50.479"/>
					</g>
				</g>
				<g clip-path="url(#SVGID_2_)">
					<rect x="20.5" y="38.918" fill="none" width="46.5" height="50.479"/>
					<g>
						<rect x="20.5" y="38.918" fill-rule="evenodd" clip-rule="evenodd" fill="#FFD24D" width="46.5" height="50.479"/>
					</g>
				</g>
				<g clip-path="url(#SVGID_2_)">
					<rect x="20.5" y="89.397" fill="none" width="46.5" height="50.479"/>
					<g>
						<rect x="20.5" y="89.397" fill-rule="evenodd" clip-rule="evenodd" fill="#FFD24D" width="46.5" height="50.479"/>
					</g>
				</g>
				<g clip-path="url(#SVGID_2_)">
					<rect x="-26" y="38.918" fill="none" width="46.5" height="50.479"/>
					<g>
						<rect x="-26" y="38.918" fill-rule="evenodd" clip-rule="evenodd" fill="#FFD24D" width="46.5" height="50.479"/>
					</g>
				</g>
				<g clip-path="url(#SVGID_2_)">
					<rect x="-26" y="89.397" fill="none" width="46.5" height="50.479"/>
					<g>
						<rect x="-26" y="89.397" fill-rule="evenodd" clip-rule="evenodd" fill="#FFD24D" width="46.5" height="50.479"/>
					</g>
				</g>
			</g>
		</g>
		<g>
			<g>
				<defs>
					<polygon id="SVGID_27_" points="22.179,103.956 24.243,111.857 25.737,111.507 24.474,106.279 28.95,110.577 30.442,110.114 
						28.261,102.095 26.767,102.563 28.146,107.791 23.673,103.489 					"/>
				</defs>
				<clipPath id="SVGID_4_">
					<use xlink:href="#SVGID_27_"  overflow="visible"/>
				</clipPath>
				<g clip-path="url(#SVGID_4_)">
					<rect x="20.5" y="89.397" fill="none" width="46.5" height="50.479"/>
					<g>
						<rect x="20.5" y="89.397" fill-rule="evenodd" clip-rule="evenodd" fill="#FFD24D" width="46.5" height="50.479"/>
					</g>
				</g>
			</g>
		</g>
		<g>
			<g>
				<defs>
					<polygon id="SVGID_29_" points="30.097,101.864 32.163,109.647 38.017,108.022 37.673,106.742 33.312,107.904 32.739,105.817 
						36.642,104.768 36.298,103.375 32.394,104.537 31.937,102.676 36.065,101.514 35.722,100.239 					"/>
				</defs>
				<clipPath id="SVGID_6_">
					<use xlink:href="#SVGID_29_"  overflow="visible"/>
				</clipPath>
				<g clip-path="url(#SVGID_6_)">
					<rect x="20.5" y="89.397" fill="none" width="46.5" height="50.479"/>
					<g>
						<rect x="20.5" y="89.397" fill-rule="evenodd" clip-rule="evenodd" fill="#FFD24D" width="46.5" height="50.479"/>
					</g>
				</g>
			</g>
		</g>
		<g>
			<g>
				<defs>
					<polygon id="SVGID_31_" points="36.524,100.003 40.427,107.323 42.038,106.86 42.151,100.583 45.251,106.048 46.858,105.581 
						46.743,97.216 45.134,97.679 45.364,103.375 42.497,98.378 40.772,98.841 40.657,104.537 38.017,99.541 					"/>
				</defs>
				<clipPath id="SVGID_8_">
					<use xlink:href="#SVGID_31_"  overflow="visible"/>
				</clipPath>
				<g clip-path="url(#SVGID_8_)">
					<rect x="20.5" y="89.397" fill="none" width="46.5" height="50.479"/>
					<g>
						<rect x="20.5" y="89.397" fill-rule="evenodd" clip-rule="evenodd" fill="#FFD24D" width="46.5" height="50.479"/>
					</g>
				</g>
			</g>
		</g>
	</g>
	<g>
		<defs>
			<rect id="SVGID_33_" x="11.769" y="82.382" width="23.23" height="44.833"/>
		</defs>
		<clipPath id="SVGID_10_">
			<use xlink:href="#SVGID_33_"  overflow="visible"/>
		</clipPath>
		<g clip-path="url(#SVGID_10_)">
			<g>
				<g>
					<defs>
						<path id="SVGID_35_" d="M25.478,89.733c0,0,0.826,0.336,1.734-1.502c0,0,1.443-3.636,3.096-3.137c0,0,2.391,0.963,3.344,1.629
							c0,0,0.949,0.922,2.6,0l2.479-1.379c0,0,1.523-0.835,2.229,0.127l1.982,3.009c0,0,0.408,1.085,1.732,1.253l3.096,0.126
							c0,0,2.025-0.126,2.105,1.752l0.125,3.386c0,0,0.041,1.131,1.115,1.884l2.479,1.63c0,0,1.979,0.748,0.74,2.881l-1.113,2.133
							c0,0-0.785,1.045-0.371,2.006l1.361,2.755c0,0,1.57,2.256-0.99,3.513l-1.982,1.253c0,0-0.988,0.336-1.117,1.629l-0.121,3.508
							c0,0,0.412,1.884-2.107,1.884l-2.971,0.122c0,0-0.949-0.163-1.857,1.131l-1.361,2.133c0,0-0.867,2.505-3.223,1.003
							l-2.229-1.13c0,0-1.074-1.003-2.6,0l-2.105,1.13c0,0-1.861,1.375-2.973-0.504l-1.488-2.384c0,0-0.412-1.419-1.979-1.379
							l-3.346-0.122c0,0-1.693,0.122-1.734-2.133v-2.633c0,0,0.205-1.338-0.621-1.878l-2.971-1.884c0,0-1.816-0.794-0.74-2.882
							c1.07-2.088,0.121-0.249,0.121-0.249l1.24-2.383c0,0,0.908-0.713-0.373-3.009l-1.238-2.134c0,0-0.785-1.542,0.865-2.377
							l2.602-1.757c0,0,1.32-0.504,1.115-1.879l0.123-2.887c0,0-0.205-1.588,1.24-1.879C21.39,90.109,24.2,89.774,25.478,89.733z
							 M24.044,93.009c-1.16,0.236-0.998,1.516-0.998,1.516l-0.096,2.319c0.162,1.111-0.898,1.516-0.898,1.516l-2.092,1.412
							c-1.33,0.671-0.699,1.914-0.699,1.914l0.994,1.716c1.029,1.852,0.299,2.424,0.299,2.424l-0.994,1.914
							c0,0,0.764-1.479-0.1,0.205c-0.867,1.679,0.6,2.318,0.6,2.318l2.393,1.512c0.66,0.439,0.498,1.516,0.498,1.516v2.119
							c0.031,1.815,1.393,1.716,1.393,1.716l2.691,0.1c1.262-0.032,1.598,1.111,1.598,1.111l1.193,1.916
							c0.898,1.516,2.393,0.404,2.393,0.404l1.697-0.908c1.229-0.808,2.092,0,2.092,0l1.791,0.908
							c1.898,1.211,2.598-0.809,2.598-0.809l1.094-1.716c0.73-1.043,1.498-0.907,1.498-0.907l2.391-0.1
							c2.023,0,1.693-1.516,1.693-1.516l0.1-2.823c0.1-1.043,0.898-1.312,0.898-1.312l1.594-1.012
							c2.061-1.007,0.799-2.823,0.799-2.823l-1.098-2.219c-0.332-0.776,0.299-1.616,0.299-1.616l0.898-1.715
							c0.996-1.716-0.6-2.318-0.6-2.318l-1.992-1.313c-0.863-0.607-0.898-1.516-0.898-1.516l-0.1-2.723
							c-0.063-1.517-1.693-1.411-1.693-1.411l-2.492-0.105c-1.066-0.132-1.396-1.007-1.396-1.007l-1.594-2.419
							c-0.566-0.775-1.797-0.104-1.797-0.104l-1.992,1.112c-1.328,0.739-2.092,0-2.092,0c-0.768-0.54-2.691-1.312-2.691-1.312
							c-1.33-0.403-2.492,2.522-2.492,2.522c-0.734,1.479-1.396,1.207-1.396,1.207C26.304,92.742,24.044,93.009,24.044,93.009z"/>
					</defs>
					<clipPath id="SVGID_12_">
						<use xlink:href="#SVGID_35_"  overflow="visible"/>
					</clipPath>
					<g clip-path="url(#SVGID_12_)">
						<rect x="20.5" y="38.918" fill="none" width="46.5" height="50.479"/>
						<g>
							<rect x="20.5" y="38.918" fill-rule="evenodd" clip-rule="evenodd" fill="#FFE599" width="46.5" height="50.479"/>
						</g>
					</g>
					<g clip-path="url(#SVGID_12_)">
						<rect x="20.5" y="89.397" fill="none" width="46.5" height="50.479"/>
						<g>
							<rect x="20.5" y="89.397" fill-rule="evenodd" clip-rule="evenodd" fill="#FFE599" width="46.5" height="50.479"/>
						</g>
					</g>
					<g clip-path="url(#SVGID_12_)">
						<rect x="-26" y="38.918" fill="none" width="46.5" height="50.479"/>
						<g>
							<rect x="-26" y="38.918" fill-rule="evenodd" clip-rule="evenodd" fill="#FFE599" width="46.5" height="50.479"/>
						</g>
					</g>
					<g clip-path="url(#SVGID_12_)">
						<rect x="-26" y="89.397" fill="none" width="46.5" height="50.479"/>
						<g>
							<rect x="-26" y="89.397" fill-rule="evenodd" clip-rule="evenodd" fill="#FFE599" width="46.5" height="50.479"/>
						</g>
					</g>
					<g clip-path="url(#SVGID_12_)">
						<rect x="20.5" y="38.918" fill="none" width="46.5" height="50.479"/>
						<g>
							<rect x="20.5" y="38.918" fill-rule="evenodd" clip-rule="evenodd" fill="#FFE599" width="46.5" height="50.479"/>
						</g>
					</g>
					<g clip-path="url(#SVGID_12_)">
						<rect x="20.5" y="89.397" fill="none" width="46.5" height="50.479"/>
						<g>
							<rect x="20.5" y="89.397" fill-rule="evenodd" clip-rule="evenodd" fill="#FFE599" width="46.5" height="50.479"/>
						</g>
					</g>
					<g clip-path="url(#SVGID_12_)">
						<rect x="-26" y="38.918" fill="none" width="46.5" height="50.479"/>
						<g>
							<rect x="-26" y="38.918" fill-rule="evenodd" clip-rule="evenodd" fill="#FFE599" width="46.5" height="50.479"/>
						</g>
					</g>
					<g clip-path="url(#SVGID_12_)">
						<rect x="-26" y="89.397" fill="none" width="46.5" height="50.479"/>
						<g>
							<rect x="-26" y="89.397" fill-rule="evenodd" clip-rule="evenodd" fill="#FFE599" width="46.5" height="50.479"/>
						</g>
					</g>
				</g>
			</g>
			<g>
				<g>
					<defs>
						<polygon id="SVGID_37_" points="22.179,103.956 24.243,111.857 25.737,111.507 24.474,106.279 28.95,110.577 30.442,110.114 
							28.261,102.095 26.767,102.563 28.146,107.791 23.673,103.489 						"/>
					</defs>
					<clipPath id="SVGID_14_">
						<use xlink:href="#SVGID_37_"  overflow="visible"/>
					</clipPath>
					<g clip-path="url(#SVGID_14_)">
						<rect x="20.5" y="89.397" fill="none" width="46.5" height="50.479"/>
						<g>
							<rect x="20.5" y="89.397" fill-rule="evenodd" clip-rule="evenodd" fill="#FFE599" width="46.5" height="50.479"/>
						</g>
					</g>
				</g>
			</g>
			<g>
				<g>
					<defs>
						<polygon id="SVGID_39_" points="30.097,101.864 32.163,109.647 38.017,108.022 37.673,106.742 33.312,107.904 32.739,105.817 
							36.642,104.768 36.298,103.375 32.394,104.537 31.937,102.676 36.065,101.514 35.722,100.239 						"/>
					</defs>
					<clipPath id="SVGID_16_">
						<use xlink:href="#SVGID_39_"  overflow="visible"/>
					</clipPath>
					<g clip-path="url(#SVGID_16_)">
						<rect x="20.5" y="89.397" fill="none" width="46.5" height="50.479"/>
						<g>
							<rect x="20.5" y="89.397" fill-rule="evenodd" clip-rule="evenodd" fill="#FFE599" width="46.5" height="50.479"/>
						</g>
					</g>
				</g>
			</g>
			<g>
				<g>
					<defs>
						<polygon id="SVGID_41_" points="36.524,100.003 40.427,107.323 42.038,106.86 42.151,100.583 45.251,106.048 46.858,105.581 
							46.743,97.216 45.134,97.679 45.364,103.375 42.497,98.378 40.772,98.841 40.657,104.537 38.017,99.541 						"/>
					</defs>
					<clipPath id="SVGID_18_">
						<use xlink:href="#SVGID_41_"  overflow="visible"/>
					</clipPath>
					<g clip-path="url(#SVGID_18_)">
						<rect x="20.5" y="89.397" fill="none" width="46.5" height="50.479"/>
						<g>
							<rect x="20.5" y="89.397" fill-rule="evenodd" clip-rule="evenodd" fill="#FFE599" width="46.5" height="50.479"/>
						</g>
					</g>
				</g>
			</g>
		</g>
	</g>
</g>
<g>
	<g>
		<g>
			<g>
				<defs>
					<polygon id="SVGID_137_" points="110.028,105.917 112.682,104.525 115.335,105.919 114.829,102.966 116.978,100.873 
						114.009,100.441 112.685,97.753 111.357,100.44 108.39,100.871 110.535,102.964 					"/>
				</defs>
				<clipPath id="SVGID_20_">
					<use xlink:href="#SVGID_137_"  overflow="visible"/>
				</clipPath>
				<g clip-path="url(#SVGID_20_)">
					<rect x="67" y="89.397" fill="none" width="46.5" height="50.479"/>
					<g>
						<rect x="67" y="89.397" fill-rule="evenodd" clip-rule="evenodd" fill="#FFD24D" width="46.5" height="50.479"/>
					</g>
				</g>
			</g>
		</g>
		<g>
			<g>
				<g>
					<defs>
						<path id="SVGID_143_" d="M141.017,117.168H107.34c-1.305,0-2.364,0.131-2.364,0.293v2.352c0,0.161,1.06,0.292,2.364,0.292
							l33.677,0c1.307,0,2.364-0.131,2.364-0.292v-2.352C143.381,117.299,142.323,117.168,141.017,117.168z"/>
					</defs>
					<clipPath id="SVGID_22_">
						<use xlink:href="#SVGID_143_"  overflow="visible"/>
					</clipPath>
					<g clip-path="url(#SVGID_22_)">
						<rect x="67" y="89.397" fill="none" width="46.5" height="50.479"/>
						<g>
							<rect x="67" y="89.397" fill-rule="evenodd" clip-rule="evenodd" fill="#FFD24D" width="46.5" height="50.479"/>
						</g>
					</g>
				</g>
			</g>
			<g>
				<g>
					<defs>
						<path id="SVGID_145_" d="M147.107,94.194c-1.336,0-2.419,1.083-2.42,2.42c0,0.95,0.55,1.772,1.349,2.169v8.46h-2.655v-12.28
							c0-1.306-1.058-2.364-2.364-2.364h-3.961v-2.577c0-0.198-0.711-0.359-1.585-0.359l-22.584,0c-0.877,0-1.586,0.162-1.586,0.359
							v2.578h-3.961c-1.305,0-2.364,1.058-2.364,2.363v18.988c0,1.305,1.06,2.363,2.364,2.363h33.677
							c1.307,0,2.364-1.058,2.364-2.363v-3.063h4.799v-1.82v-1.823v-8.461c0.797-0.396,1.346-1.218,1.346-2.168
							C149.526,95.278,148.442,94.194,147.107,94.194z M117.626,110.143h-9.888V95.35h9.888V110.143z M129.121,110.143h-9.887
							l-0.001-14.793h9.888V110.143z M140.618,110.143h-9.887V95.35h9.887V110.143z"/>
					</defs>
					<clipPath id="SVGID_24_">
						<use xlink:href="#SVGID_145_"  overflow="visible"/>
					</clipPath>
					<g clip-path="url(#SVGID_24_)">
						<rect x="67" y="89.397" fill="none" width="46.5" height="50.479"/>
						<g>
							<rect x="67" y="89.397" fill-rule="evenodd" clip-rule="evenodd" fill="#FFD24D" width="46.5" height="50.479"/>
						</g>
					</g>
					<g clip-path="url(#SVGID_24_)">
						<rect x="67" y="89.397" fill="none" width="46.5" height="50.479"/>
						<g>
							<rect x="67" y="89.397" fill-rule="evenodd" clip-rule="evenodd" fill="#FFD24D" width="46.5" height="50.479"/>
						</g>
					</g>
				</g>
			</g>
		</g>
	</g>
	<g>
		<defs>
			<rect id="SVGID_147_" x="101.167" y="85.21" width="22.953" height="44"/>
		</defs>
		<clipPath id="SVGID_26_">
			<use xlink:href="#SVGID_147_"  overflow="visible"/>
		</clipPath>
		<g clip-path="url(#SVGID_26_)">
			<g>
				<g>
					<defs>
						<polygon id="SVGID_149_" points="110.028,105.917 112.682,104.525 115.335,105.919 114.829,102.966 116.978,100.873 
							114.009,100.441 112.685,97.753 111.357,100.44 108.39,100.871 110.535,102.964 						"/>
					</defs>
					<clipPath id="SVGID_28_">
						<use xlink:href="#SVGID_149_"  overflow="visible"/>
					</clipPath>
					<g clip-path="url(#SVGID_28_)">
						<rect x="67" y="89.397" fill="none" width="46.5" height="50.479"/>
						<g>
							<rect x="67" y="89.397" fill-rule="evenodd" clip-rule="evenodd" fill="#FFE599" width="46.5" height="50.479"/>
						</g>
					</g>
				</g>
			</g>
			<g>
				<g>
					<g>
						<defs>
							<path id="SVGID_155_" d="M141.017,117.168H107.34c-1.305,0-2.364,0.131-2.364,0.293v2.352c0,0.161,1.06,0.292,2.364,0.292
								l33.677,0c1.307,0,2.364-0.131,2.364-0.292v-2.352C143.381,117.299,142.323,117.168,141.017,117.168z"/>
						</defs>
						<clipPath id="SVGID_30_">
							<use xlink:href="#SVGID_155_"  overflow="visible"/>
						</clipPath>
						<g clip-path="url(#SVGID_30_)">
							<rect x="67" y="89.397" fill="none" width="46.5" height="50.479"/>
							<g>
								<rect x="67" y="89.397" fill-rule="evenodd" clip-rule="evenodd" fill="#FFE599" width="46.5" height="50.479"/>
							</g>
						</g>
					</g>
				</g>
				<g>
					<g>
						<defs>
							<path id="SVGID_157_" d="M147.107,94.194c-1.336,0-2.419,1.083-2.42,2.42c0,0.95,0.55,1.772,1.349,2.169v8.46h-2.655v-12.28
								c0-1.306-1.058-2.364-2.364-2.364h-3.961v-2.577c0-0.198-0.711-0.359-1.585-0.359l-22.584,0
								c-0.877,0-1.586,0.162-1.586,0.359v2.578h-3.961c-1.305,0-2.364,1.058-2.364,2.363v18.988c0,1.305,1.06,2.363,2.364,2.363
								h33.677c1.307,0,2.364-1.058,2.364-2.363v-3.063h4.799v-1.82v-1.823v-8.461c0.797-0.396,1.346-1.218,1.346-2.168
								C149.526,95.278,148.442,94.194,147.107,94.194z M117.626,110.143h-9.888V95.35h9.888V110.143z M129.121,110.143h-9.887
								l-0.001-14.793h9.888V110.143z M140.618,110.143h-9.887V95.35h9.887V110.143z"/>
						</defs>
						<clipPath id="SVGID_32_">
							<use xlink:href="#SVGID_157_"  overflow="visible"/>
						</clipPath>
						<g clip-path="url(#SVGID_32_)">
							<rect x="67" y="89.397" fill="none" width="46.5" height="50.479"/>
							<g>
								<rect x="67" y="89.397" fill-rule="evenodd" clip-rule="evenodd" fill="#FFE599" width="46.5" height="50.479"/>
							</g>
						</g>
						<g clip-path="url(#SVGID_32_)">
							<rect x="67" y="89.397" fill="none" width="46.5" height="50.479"/>
							<g>
								<rect x="67" y="89.397" fill-rule="evenodd" clip-rule="evenodd" fill="#FFE599" width="46.5" height="50.479"/>
							</g>
						</g>
					</g>
				</g>
			</g>
		</g>
	</g>
</g>
</svg>
